REM MD5 8b36952c5e73d7d0dbc6f2dfa25af955
FILE "Winter Releases - '97 Demo 01 (Europe).bin" BINARY
  TRACK 01 MODE2/2352
    INDEX 01 00:00:00
  TRACK 02 AUDIO
    INDEX 00 23:39:31
    INDEX 01 23:41:31
  TRACK 03 AUDIO
    INDEX 00 29:15:29
    INDEX 01 29:17:29
  TRACK 04 AUDIO
    INDEX 00 34:13:05
    INDEX 01 34:15:05
REM LEADOUT 37:32:35
